<svg xmlns="http://www.w3.org/2000/svg" viewBox="0 0 232.29224 230.68488"><defs><style>.cls-1{fill:#556270;}.cls-2{fill:#4ecdc4;}</style></defs><title>icon_theme</title><g id="Layer_2" data-name="Layer 2"><g id="Layer_1-2" data-name="Layer 1"><path class="cls-1" d="M74.11094,162.93211a.69888.69888,0,0,0,.04237.12271l.0465.1271.06355.13124a1.11842,1.11842,0,0,0,.07182.1395,5.35425,5.35425,0,0,0,.91865,1.15141,11.00049,11.00049,0,0,0,1.35446,1.12144,23.01632,23.01632,0,0,0,3.3266,1.92177c.59263.28779,1.19791.55852,1.82024.81686l.46966.19479.24129.09713.22863.08887.45286.178c.15242.05916.309.11005.46139.16508a31.25567,31.25567,0,0,0,3.80091,1.0876c.33016.03384.66031.07207.9946.09739l.49523.03824.49523.02945q.99667.04455,1.98067.02557c.33016-.00852.65618-.02557.98194-.03823.326-.02532.65205-.038.97368-.07182.64325-.05942,1.27825-.13124,1.90032-.24568.62647-.10153,1.23175-.24129,1.82438-.38931a17.2541,17.2541,0,0,0,1.69288-.54174,9.93092,9.93092,0,0,0,2.69626-1.46037,4.74042,4.74042,0,0,0,.79568-.81247,2.594,2.594,0,0,0,.38932-.73652c.01291-.055.03823-.10592.05089-.16095a.97046.97046,0,0,1,.02971-.16068c.00852-.11858.038-.216.05063-.38518.03384-.31337.06794-.79155.11858-1.50275a16.96076,16.96076,0,0,1,.38518-2.7004l.08887-.38931c.03384-.1271.07621-.2666.11857-.39784.08474-.271.16069-.5376.26247-.80007.10566-.2666.21571-.52907.32577-.79128.11444-.26248.25394-.50815.381-.7621l.20306-.37226c.06768-.123.14389-.233.216-.35134.148-.22863.29631-.45726.44873-.68563.15655-.22449.31723-.419.47818-.62646l.42755-.52908.20305-.25834.3175-.41049c.22862-.29632.48257-.618.7577-.944a20.70221,20.70221,0,0,1,4.01662-3.74562c.38932-.27513.80007-.52908,1.20644-.77889.23689-.13537.47818-.271.71946-.40223l-.15241-.13537c-.15656-.13976-.31311-.27926-.46553-.43581l-.46139-.45726c-.14828-.15242-.30484-.29631-.44873-.46552a22.017,22.017,0,0,1-1.68462-2.0233q-.19685-.26661-.38078-.53321l-.35134-.52907c-.12271-.17774-.22424-.34721-.33016-.51642l-.15655-.25394-.14828-.24981c-.38932-.65592-.69416-1.18939-.95223-1.58723a5.02854,5.02854,0,0,0-.69-.90573c-.0633-.05916-.89721-.83365-.89721-.83365a4.717,4.717,0,0,0-.5841-.42341c-.216-.1439-.44873-.26661-.68149-.39371a9.22021,9.22021,0,0,0-1.45185-.60089,7.494,7.494,0,0,0-2.97114-.35134,6.50063,6.50063,0,0,0-2.84429.96928,10.94607,10.94607,0,0,0-1.39683,1.05815l-.18626.16921-.16068.14829c-.11.10152-.22011.19891-.326.30457-.20745.216-.42316.42342-.62647.66031-.41463.46139-.80834.96515-1.20618,1.49836-.3937.53346-.77036,1.10491-1.1514,1.70166L91.57452,146.7c-.19892.32189-.419.64352-.63912.97367-.23276.32577-.46553.65179-.73626.97342l-.19479.24129-.216.23689-.21571.233-.11005.11832-.10592.10152a11.99316,11.99316,0,0,1-.88868.82539,14.25263,14.25263,0,0,1-1.998,1.401c-.61794.37692-1.17233.7112-1.73525,1.07934-.55439.364-1.109.74091-1.66343,1.13874l-1.69727,1.22736-1.68023,1.23589c-1.109.82538-2.1925,1.6593-3.16617,2.51413a15.50838,15.50838,0,0,0-1.32889,1.29091,6.30771,6.30771,0,0,0-.90573,1.23615,1.98192,1.98192,0,0,0-.25394.96075,1.28751,1.28751,0,0,0,.02092.21571c.00853.03824.00853.07208.017.11445C74.08976,162.8559,74.10242,162.89414,74.11094,162.93211Z"/><path class="cls-1" d="M200.695,136.51689c-2.28964-.87188-3.32687.60529-8.70208,1.07934-4.7702.419-5.77332-.58-6.06111-.92692-.9313-1.109-.66444-2.78513-.46552-3.70352,1.69288-7.85577,9.94649-20.06245,9.94649-20.06245C201.91,98.35587,194.08807,78.3611,184.535,67.38178c-20.42232-23.46552-58.51127-16.93476-77.40991-8.0335C93.4454,65.79456,82.49579,77.16319,78.242,85.438c-7.43236,14.46274-.56292,19.2709-9.32442,31.94337-4.81256,6.9627-11.43218,11.96126-13.98455,13.88716-9.20584,6.94978-13.7177,6.89062-19.73643,13.73474-3.05613,3.47929-7.716,8.7783-7.30138,15.27961.673,10.60266,14.68723,21.71322,27.50333,18.67,9.04515-2.146,13.61643-10.20044,15.06389-13.26922-.01266-.02532-.02971-.0465-.04237-.07182a6.52165,6.52165,0,0,1-.86336-3.03494,6.05686,6.05686,0,0,1,.19479-1.64225,7.25217,7.25217,0,0,1,.55439-1.43894A10.68341,10.68341,0,0,1,71.85928,157.32a21.4097,21.4097,0,0,1,1.69288-1.65491c1.14288-.99873,2.29842-1.88353,3.44957-2.74276l1.72285-1.26534,1.72673-1.2488c.58849-.42315,1.202-.84218,1.82-1.24854s1.26559-.79981,1.85409-1.15554a12.0896,12.0896,0,0,0,1.46864-1.00726c.11005-.08887.22011-.18626.33429-.28365.11444-.093.22863-.20306.34281-.30458l.08887-.0806.07208-.07182.148-.14389.15242-.1439.14829-.16094a11.92584,11.92584,0,0,0,1.147-1.42628c.37226-.52907.7236-1.10052,1.07494-1.71019.3472-.605.68562-1.24,1.04962-1.88767.1736-.32576.37252-.65592.56317-.98194.20719-.33015.40611-.65592.63474-.98607.21158-.33016.45286-.652.69415-.97781.12271-.16094.25394-.31749.38518-.47818l.19479-.24129.17773-.21183a16.83873,16.83873,0,0,1,1.72259-1.77762,12.73239,12.73239,0,0,1,4.72783-2.65389c.44434-.12271.89307-.254,1.35033-.33429.22423-.038.45286-.0974.68123-.12271l.68588-.08474a16.29487,16.29487,0,0,1,2.72572-.02531,18.61244,18.61244,0,0,1,2.658.3937c.43607.09714.86775.20719,1.308.33842.43581.123.87189.27952,1.33741.45726l.0465-.08474.64352.33429a7.0844,7.0844,0,0,1,.64326.35987c.216.13536.43168.27513.64765.41489.21571.1395.42315.3131.63473.46965l.31336.24568c.10153.08448.19892.17774.29632.2666.19452.17774.402.35961.5797.54587.17361.18626.35134.37252.52494.56292.16508.18626.309.36839.46139.55465.57971.73212,1.02844,1.3883,1.4051,1.90885a16.69228,16.69228,0,0,0,1.0752,1.35007A13.36715,13.36715,0,0,0,118.384,141.16c.08887.09326.20306.17773.30458.26686l.31336.26221a4.03338,4.03338,0,0,0,.33016.26247l.33842.254c.2201.1736.45312.34281.69415.50375.24129.16508.48258.32577.73239.48671.49936.3175,1.01991.62233,1.604.95662.29218.16921.60115.34695.95249.55439a15.10433,15.10433,0,0,1,1.28239.8551,7.32656,7.32656,0,0,1,1.02017.92252l.15242.1736c.05063.05942.11832.13976.17334.21158.055.07208.11005.14829.16508.22449.05942.08035.1271.18187.18213.27513a3.30868,3.30868,0,0,1,.17334.29632c.06355.11418.123.23276.18213.35547a5.42429,5.42429,0,0,1,.30044.81273c.04237.1395.0806.309.11445.46552.02945.16068.055.32163.07181.48671.017.16094.02532.33015.02971.49523a3.6343,3.6343,0,0,1-.017.48671,4.91775,4.91775,0,0,1-.148.9313c-.03385.148-.08035.30045-.12711.44847-.05063.14829-.11418.30484-.17773.45287-.06355.14828-.13537.3007-.21158.4402-.08034.13563-.16094.27513-.24542.40637a5.71211,5.71211,0,0,1-.54612.69828,6.09626,6.09626,0,0,1-1.04963.91426,7.20152,7.20152,0,0,1-1.43919.7577l-.25808.10153-.22424.0806c-.15242.055-.26686.08887-.39784.13537-.48257.148-.838.24542-1.16406.34281-.635.18213-1.13849.34281-1.61693.52494-.23277.093-.46139.18626-.6815.28779s-.43581.20744-.64326.31749c-.21157.11006-.41489.23277-.61794.35961-.055.03384-.11005.07207-.16508.10592a77.81072,77.81072,0,0,0,18.58968,2.36171,46.80339,46.80339,0,0,0,16.78208-3.24213,31.39119,31.39119,0,0,0,9.172-6.01873c4.05072-3.33539,5.113-5.27808,6.67905-4.93527,2.62.56731,1.95121,6.476,5.13,12.18989,2.97553,5.3499,8.01646,8.19419,11.58022,9.72225a5.45442,5.45442,0,0,0,2.09511-.46139,6.08759,6.08759,0,0,0,3.10676-3.5511c4.74487-1.57017,6.222-3.55523,6.68318-5.09182.55878-1.875-.33429-2.81458.46578-4.63043,1.10878-2.51827,3.75-1.82851,4.81669-4.16491.78716-1.73112-.4402-2.42527.309-5.40079.5283-2.09253,1.27567-2.23927,1.2439-3.54723v-.0062A5.82145,5.82145,0,0,0,200.695,136.51689Zm-82.09537-35.90083.0509.11419c-.41489.41075-.84244.78741-1.2656,1.1682-.21571.18212-.42754.36838-.63912.55878-.21158.18626-.42316.36813-.63474.55026l-1.27411,1.08785c-.42316.35547-.85071.70242-1.26973,1.06228l-5.00735,4.15226c-1.65051,1.37125-3.2801,2.72984-4.88437,4.10988l-.60529.512-.60089.51642c-.40223.33868-.79154.69828-1.19352,1.037-.79154.69415-1.58309,1.39244-2.35758,2.09512-.19892.1736-.39371.3472-.58.52494-.19039.17773-.38518.34694-.57557.52468-.37252.35134-.7577.69854-1.11757,1.04988-.36813.35108-.71507.70681-1.0708,1.05815-.16922.17334-.33843.35547-.50789.52907-.16922.17774-.32577.35548-.49085.53321a21.52433,21.52433,0,0,0-1.73964,2.15427,15.482,15.482,0,0,0-1.33327,2.35345,21.57511,21.57511,0,0,0-1.63812,5.62942,30.96649,30.96649,0,0,0-.309,3.14061c-.04237.89307-.038,1.80293-.02945,2.7425.02532.15242.055.309.08448.46139l-.08035.02971v.10153l-.24981.08473a15.19822,15.19822,0,0,1-1.78175-3.00523,17.23709,17.23709,0,0,1-1.13875-3.3775,17.85,17.85,0,0,1-.11418-7.3732,16.61061,16.61061,0,0,1,1.19791-3.70791,20.26909,20.26909,0,0,1,1.95121-3.29715,27.64457,27.64457,0,0,1,2.31522-2.80606c.39784-.4446.81247-.8507,1.22736-1.27412.41489-.402.83391-.81272,1.26146-1.19351a50.28561,50.28561,0,0,1,11.27977-7.82193,45.20715,45.20715,0,0,1,6.33623-2.62832c.27513-.08887.54587-.18213.821-.26247l.82539-.23716c.55026-.15655,1.10465-.309,1.66757-.42728a27.111,27.111,0,0,1,3.28036-.58c.10592-.03384.21158-.06769.32163-.10153l.0465.10153C118.71825,100.544,118.65909,100.58222,118.59967,100.61606Zm10.23867,41.74183a5.82837,5.82837,0,0,1-7.41556-3.5046,6.02767,6.02767,0,1,1,7.41556,3.5046Z"/><path class="cls-2" d="M118.4093,100.506a27.12678,27.12678,0,0,0-3.28039.58c-.563.11834-1.11731.27075-1.66748.4273l-.82544.23719c-.27515.08032-.5459.17358-.821.26245a45.21218,45.21218,0,0,0-6.33618,2.62829,50.28593,50.28593,0,0,0-11.27979,7.822c-.42755.3808-.84655.79151-1.26147,1.19349-.41486.42346-.82953.82953-1.22736,1.27417a27.63281,27.63281,0,0,0-2.31518,2.806,20.26417,20.26417,0,0,0-1.95123,3.29718,16.61068,16.61068,0,0,0-1.19794,3.70788,17.85005,17.85005,0,0,0,.1142,7.37317,17.23549,17.23549,0,0,0,1.13873,3.3775,15.19916,15.19916,0,0,0,1.7818,3.00525l.24975-.08471v-.10157l.08039-.02966c-.02948-.15247-.05915-.309-.08448-.46143-.00854-.93957-.01294-1.84942.02942-2.74249a30.99285,30.99285,0,0,1,.309-3.14062,21.575,21.575,0,0,1,1.63813-5.6294,15.47945,15.47945,0,0,1,1.33331-2.35345,21.53115,21.53115,0,0,1,1.73962-2.1543c.1651-.17773.32166-.35547.49085-.5332.16949-.17359.33868-.35572.50787-.529.35577-.35132.7027-.7071,1.0708-1.05817.35986-.35132.745-.69855,1.11756-1.04987.19043-.17773.38525-.34692.57568-.52466.18616-.17773.381-.35137.57983-.525.77454-.7027,1.56617-1.40094,2.35767-2.09509.40185-.33869.79126-.6983,1.19348-1.037l.601-.51642.60523-.512c1.60425-1.38,3.23388-2.73865,4.8844-4.10986l5.00732-4.15229c.41907-.35986.84656-.70678,1.26965-1.06225l1.27417-1.08789c.21167-.18213.4231-.364.63477-.55024.21155-.19036.42334-.37664.63916-.55877.4231-.3808.85059-.75745,1.26562-1.16822l-.051-.11419c.05957-.03382.11865-.07208.17773-.11005l-.04638-.1015C118.62085,100.43829,118.51514,100.47217,118.4093,100.506Zm7.06836,31.25775a5.76918,5.76918,0,0,0-4.05481,7.08954,6.028,6.028,0,1,0,4.05481-7.08954ZM116.14575,0C52.011,0,.01654,51.626,0,115.31207v.061c.01654,63.686,52.011,115.31183,116.14575,115.31183,64.14478,0,116.14649-51.64185,116.14649-115.34235S180.29053,0,116.14575,0Zm-3.4292,149.41748c-.40637.24976-.81714.50372-1.20642.77887a20.69939,20.69939,0,0,0-4.0166,3.74561c-.27515.32605-.52917.64764-.75769.944l-.31751.41052-.203.2583-.42761.52911c-.161.2074-.32166.402-.47815.62647-.15247.22833-.30078.457-.44873.68561-.07214.11834-.14832.22839-.21606.35131l-.203.37226c-.12707.254-.2666.49963-.381.76214-.11011.26221-.22021.52466-.3258.79126-.10181.26245-.17774.52906-.26258.8-.04223.13129-.08471.27075-.11841.39789l-.08886.38928a16.94439,16.94439,0,0,0-.38526,2.70038c-.05066.71124-.08471,1.18939-.11865,1.50275-.01257.16925-.042.2666-.05054.38519a.96962.96962,0,0,0-.02978.16071c-.0127.055-.038.10589-.05078.16094a2.59327,2.59327,0,0,1-.38941.73652,4.7431,4.7431,0,0,1-.79565.81244,9.93074,9.93074,0,0,1-2.69629,1.46038,17.24948,17.24948,0,0,1-1.69287.54175c-.59259.148-1.19788.28778-1.82434.38934-.62207.11445-1.25708.18622-1.90033.24567-.32166.03381-.64765.04651-.9737.07178-.32574.01269-.65179.02972-.98193.03827q-.98391.01895-1.98065-.02558l-.49524-.02948-.49524-.0382c-.33429-.02533-.66443-.06354-.99463-.09742a31.25468,31.25468,0,0,1-3.8009-1.08758c-.15241-.05506-.309-.1059-.46137-.1651l-.45288-.178-.22864-.08887-.24127-.0971-.46966-.19483c-.62232-.2583-1.2276-.52905-1.82025-.81683a23.01573,23.01573,0,0,1-3.3266-1.92182,10.99933,10.99933,0,0,1-1.35443-1.1214,5.35174,5.35174,0,0,1-.91864-1.15142,1.117,1.117,0,0,1-.07184-.13947l-.06354-.13129-.04651-.12707a.691.691,0,0,1-.04236-.12274,1.18831,1.18831,0,0,0-.03387-.11414c-.00849-.04236-.00849-.07623-.017-.11444a1.284,1.284,0,0,1-.02094-.21576,1.9818,1.9818,0,0,1,.254-.96075,6.3071,6.3071,0,0,1,.9057-1.23615,15.50883,15.50883,0,0,1,1.32892-1.29089c.97363-.8548,2.05713-1.68872,3.16614-2.5141l1.68023-1.2359,1.69727-1.22736c.55438-.39782,1.10907-.77478,1.66345-1.13873.56293-.36816,1.11731-.70245,1.73523-1.07935a14.25113,14.25113,0,0,0,1.998-1.401,11.98793,11.98793,0,0,0,.88867-.82537l.106-.10151.11-.11834.2157-.233.21594-.23694.19483-.24128c.27069-.32165.50348-.64764.73626-.97338.2201-.3302.44019-.6518.6391-.9737l1.15552-1.8706c.381-.59681.75775-1.16822,1.15143-1.70166.39783-.53321.79156-1.037,1.20618-1.49836.2033-.23693.419-.44433.62646-.66033.1059-.10566.216-.20307.326-.30457l.16065-.14832.18627-.16919a10.94193,10.94193,0,0,1,1.39686-1.05816,6.50067,6.50067,0,0,1,2.84423-.96924,7.49421,7.49421,0,0,1,2.9712.35132,9.22877,9.22877,0,0,1,1.4519.60089c.23267.12707.46545.24982.6814.39368a4.706,4.706,0,0,1,.5841.42346s.83386.77447.89722.83362a5.02391,5.02391,0,0,1,.69006.90576c.25806.39783.56287.93127.95215,1.58722l.14832.24981.15661.25391c.10584.16925.2074.33868.33008.51642l.35132.52911q.1842.26661.38086.53321a22.01739,22.01739,0,0,0,1.68457,2.02325c.14392.16925.30054.31311.44873.46552l.46143.45727c.15234.15656.309.29608.46557.43585l.15235.13532C113.19482,149.14648,112.95337,149.2821,112.71655,149.41748Zm90.46314-4.56665c-.74915,2.97552.47827,3.66968-.309,5.40082-1.06665,2.33636-3.70789,1.6466-4.81665,4.16485-.80017,1.81586.09289,2.75544-.46582,4.63044-.46106,1.53662-1.93836,3.52166-6.68323,5.09185a6.08724,6.08724,0,0,1-3.10669,3.55109,5.45594,5.45594,0,0,1-2.09509.46143c-3.56385-1.52808-8.60474-4.37238-11.5802-9.72229-3.179-5.71387-2.51-11.62256-5.13013-12.18988-1.56592-.34284-2.6283,1.59985-6.679,4.93524a31.39049,31.39049,0,0,1-9.17211,6.01874,46.802,46.802,0,0,1-16.782,3.24212,77.80748,77.80748,0,0,1-18.58972-2.36169c.05506-.03382.11-.07209.16516-.1059.203-.12683.40625-.24957.61792-.35962.2074-.11.4231-.216.64319-.3175s.44873-.19477.68152-.28778c.47852-.18213.98193-.34284,1.61694-.525.32593-.09735.6814-.19476,1.16407-.34277.131-.04651.24536-.08038.39782-.13538l.22425-.08062.25805-.10151a7.19979,7.19979,0,0,0,1.43921-.75769,6.09534,6.09534,0,0,0,1.04956-.9143,5.70924,5.70924,0,0,0,.54614-.69824c.08448-.13123.165-.27076.24549-.40638.07617-.13952.14807-.29193.21155-.44018.06347-.14807.12719-.30463.17773-.45288.04675-.148.09326-.30048.1272-.44849a4.924,4.924,0,0,0,.148-.93127,3.62661,3.62661,0,0,0,.01709-.48676c-.0044-.165-.0127-.33429-.02979-.49524-.01684-.165-.04236-.326-.07178-.48669-.03393-.15656-.072-.326-.1145-.46552a5.42065,5.42065,0,0,0-.30041-.81274c-.05921-.12268-.11853-.24127-.18213-.35547a3.30259,3.30259,0,0,0-.17334-.29627c-.05506-.09326-.12268-.19482-.18213-.27514-.055-.07623-.11-.15241-.165-.22449-.055-.07184-.12268-.15216-.17334-.21161l-.15247-.17358a7.328,7.328,0,0,0-1.02014-.92255,15.11613,15.11613,0,0,0-1.28235-.8551c-.35131-.2074-.6604-.38513-.95251-.55438-.58411-.33429-1.10461-.6391-1.604-.95661-.24988-.161-.49109-.32165-.73243-.48669-.24108-.16095-.474-.33014-.69421-.50379l-.33838-.2539a4.03972,4.03972,0,0,1-.33008-.26251l-.31347-.26221c-.10144-.08911-.21558-.17359-.30445-.26685a13.35016,13.35016,0,0,1-1.11328-1.13434,16.71172,16.71172,0,0,1-1.07519-1.35009c-.37671-.52057-.82544-1.1767-1.405-1.90888-.15247-.18622-.29639-.36834-.46143-.55462-.17358-.19037-.35132-.37665-.5249-.56293-.17774-.18622-.38525-.3681-.57983-.54584-.09729-.08887-.19471-.18213-.29615-.2666l-.31347-.24567c-.21155-.15655-.41895-.3302-.63477-.46966-.21582-.13977-.43164-.27954-.64758-.41492a7.10406,7.10406,0,0,0-.64319-.35986l-.64356-.33429-.0465.08471c-.46558-.17773-.90162-.33422-1.33753-.45721-.44018-.13123-.87183-.24127-1.30786-.33844a18.60846,18.60846,0,0,0-2.658-.39368,16.29832,16.29832,0,0,0-2.72583.02527l-.68579.08478c-.22852.02527-.457.08472-.68127.12268-.45728.08038-.906.21161-1.35035.33429a12.732,12.732,0,0,0-4.72784,2.65393,16.83582,16.83582,0,0,0-1.7226,1.77759l-.17773.21185-.19476.24127c-.13123.16071-.26245.31726-.3852.47821-.24127.32575-.48254.64765-.69415.97779-.22864.33014-.42755.65588-.6347.98608-.19068.326-.38959.65619-.56318.98194-.364.64764-.70245,1.28265-1.04962,1.88763-.35138.60968-.70269,1.18115-1.075,1.7102a11.9265,11.9265,0,0,1-1.147,1.42627l-.14826.16095-.15246.14392-.148.14386L86.36,146.328l-.08887.08063c-.1142.1015-.2284.21155-.34284.30457-.11413.09735-.22418.19476-.33429.28363a12.08535,12.08535,0,0,1-1.46862,1.00726c-.5885.35571-1.23615.74921-1.85407,1.15552s-1.23151.82544-1.82,1.24859L78.72461,151.657l-1.7229,1.26532c-1.15112.85926-2.30664,1.744-3.44952,2.7428A21.4014,21.4014,0,0,0,71.85925,157.32a10.68207,10.68207,0,0,0-1.55334,2.17566,7.25443,7.25443,0,0,0-.55438,1.439,6.0587,6.0587,0,0,0-.19483,1.64227,6.5211,6.5211,0,0,0,.8634,3.03492c.01264.02533.02967.04651.04236.07183-1.44745,3.06879-6.01873,11.12323-15.0639,13.26923-12.8161,3.04321-26.83038-8.06738-27.50336-18.67-.41461-6.50128,4.2453-11.8003,7.30139-15.27961,6.01874-6.84411,10.53058-6.785,19.73645-13.73474,2.55237-1.9259,9.172-6.92443,13.98456-13.88714,8.76148-12.67249,1.892-17.48065,9.3244-31.94336,4.25379-8.27478,15.20337-19.64343,28.88312-26.08972,18.89856-8.90125,56.98767-15.432,77.40991,8.0335,9.5531,10.97931,17.37488,30.97406,10.87781,45.52155,0,0-8.25366,12.20667-9.94653,20.06244-.199.9184-.46582,2.59448.46557,3.70355.28785.34693,1.2909,1.346,6.061.92688,5.37524-.474,6.41248-1.95117,8.70215-1.07928a5.82137,5.82137,0,0,1,3.72851,4.78051v.00617C204.45532,142.61157,203.708,142.7583,203.17969,144.85083Z"/></g></g></svg>