<svg xmlns="http://www.w3.org/2000/svg" viewBox="0 0 230 230">
	<defs>
		<style>
			.cls-1{fill:#4ecdc4;}.cls-2{fill:#556270;}
		</style>
	</defs>
	<title>
		icon_theme
	</title>
	<g id="Layer_2" data-name="Layer 2">
		<g id="Layer_1-2" data-name="Layer 1">
			<circle class="cls-1" cx="115" cy="115" r="115" />
			<g id="Layer_1-2-2" data-name="Layer 1-2">
				<path class="cls-2" d="M73.37875,160.44858a.70039.70039,0,0,0,.04195.12235l.04605.12672.06292.13085a1.1165,1.1165,0,0,0,.07112.13909,5.33234,5.33234,0,0,0,.90958,1.148,10.90777,10.90777,0,0,0,1.3411,1.11812,22.7519,22.7519,0,0,0,3.29377,1.91606c.58678.28694,1.18608.55686,1.80228.81444l.465.19421.23891.09685.22637.08861.44839.17746c.15092.059.30595.10972.45684.1646a30.78449,30.78449,0,0,0,3.7634,1.08437c.32691.03374.65379.07185.98479.0971l.49034.03813.49034.02936q.98685.04441,1.96113.0255c.3269-.00849.6497-.0255.97225-.03811.32278-.02524.64562-.03788.96407-.07161.6369-.05924,1.26564-.13085,1.88157-.245.62029-.10123,1.21959-.24057,1.80637-.38816a16.99735,16.99735,0,0,0,1.67618-.54012,9.81211,9.81211,0,0,0,2.66965-1.456,4.7111,4.7111,0,0,0,.78783-.81006,2.59248,2.59248,0,0,0,.38547-.73434c.01279-.05483.03786-.10561.05039-.16047a.97321.97321,0,0,1,.02942-.1602c.00843-.11822.03762-.21536.05013-.384.0335-.31244.06726-.7892.11741-1.49829a17.02074,17.02074,0,0,1,.38138-2.69237l.088-.38816c.0335-.12673.07545-.26581.11739-.39666.08391-.27019.15911-.536.25988-.79769.10462-.26581.21359-.5275.32255-.78893.11332-.2617.25143-.50664.37724-.75983l.20105-.37115c.067-.12264.14247-.23231.21388-.35029.14654-.228.29338-.4559.4443-.68359.155-.22382.3141-.41776.47346-.6246l.42333-.52752.201-.25758.31436-.40927c.22637-.29545.47781-.61616.75022-.9412a20.55529,20.55529,0,0,1,3.977-3.7345c.38548-.27431.79218-.52751,1.19454-.77657.23456-.135.47346-.27019.71236-.401l-.15091-.135c-.155-.13934-.31-.27843-.46093-.43451l-.45684-.4559c-.14681-.152-.30183-.29543-.4443-.46413a21.91822,21.91822,0,0,1-1.668-2.0173q-.19491-.26583-.377-.53162l-.34787-.52749c-.1215-.17721-.222-.34619-.3269-.51489l-.155-.25318-.14681-.24908c-.38548-.654-.68731-1.18586-.94284-1.58252a5.01,5.01,0,0,0-.68319-.903c-.06268-.059-.88836-.83117-.88836-.83117a4.6705,4.6705,0,0,0-.57833-.42216c-.21387-.14348-.4443-.26583-.67476-.39254a9.0934,9.0934,0,0,0-1.43753-.59911,7.37172,7.37172,0,0,0-2.94182-.35029,6.40674,6.40674,0,0,0-2.81622.96641,10.8445,10.8445,0,0,0-1.383,1.055l-.18441.1687-.1591.14784c-.10892.10122-.21794.19833-.32278.30366-.20541.21537-.419.42216-.62029.65835-.41054.46-.80037.96229-1.19428,1.49392-.38981.53188-.76276,1.10163-1.14,1.69661l-1.14416,1.865c-.197.32092-.41487.64161-.63282.97077-.23046.32481-.46093.64986-.729.97053l-.19287.24057-.21388.23619-.21358.23231-.109.118-.10487.10122a11.90815,11.90815,0,0,1-.87991.82294,14.11246,14.11246,0,0,1-1.97829,1.39684c-.61184.37581-1.16076.70909-1.71813,1.07614-.54892.36292-1.09806.73871-1.647,1.13536l-1.68053,1.22371-1.66365,1.23221c-1.09805.82293-2.17086,1.65438-3.13492,2.50667a15.40476,15.40476,0,0,0-1.31578,1.28707,6.28739,6.28739,0,0,0-.89679,1.23248,1.98664,1.98664,0,0,0-.25143.9579,1.29292,1.29292,0,0,0,.02071.21507c.00845.03813.00845.07187.01683.11412A1.16427,1.16427,0,0,1,73.37875,160.44858Z" />
				<path class="cls-2" d="M198.7137,134.11178c-2.267-.8693-3.294.60349-8.61622,1.07614-4.72313.41777-5.71634-.57828-6.0013-.92417-.92211-1.1057-.65789-2.77686-.46092-3.69252,1.67618-7.83245,9.84834-20.00289,9.84834-20.00289,6.43311-14.50427-1.31164-34.43968-10.77044-45.3864-20.22079-23.39586-57.93388-16.88448-76.646-8.00965-13.5447,6.42714-24.38626,17.762-28.59808,26.01226-7.359,14.4198-.55736,19.21369-9.2324,31.84853-4.76507,6.942-11.31937,11.92575-13.84655,13.84593-9.115,6.92915-13.58234,6.87017-19.54168,13.694-3.026,3.469-7.63985,8.75224-7.22933,15.23425.66636,10.57118,14.5423,21.64876,27.23193,18.61457,8.9559-2.13963,13.48207-10.17016,14.91524-13.22983-.01253-.02524-.02941-.04636-.04195-.07161a6.53636,6.53636,0,0,1-.85484-3.02594,6.07867,6.07867,0,0,1,.19287-1.63736,7.26093,7.26093,0,0,1,.54892-1.43466,10.65136,10.65136,0,0,1,1.53806-2.16927,21.26817,21.26817,0,0,1,1.67618-1.65c1.1316-.99577,2.27574-1.87794,3.41553-2.73462l1.70584-1.26158,1.70969-1.24509c.58269-.4219,1.19015-.83968,1.802-1.24483s1.2531-.79743,1.8358-1.1521a11.96759,11.96759,0,0,0,1.45415-1.00427c.109-.0886.21793-.18571.331-.2828.11331-.09273.22637-.20247.33943-.30368l.088-.08036.07137-.07161.14654-.14346.15092-.14348.14682-.16046a11.87522,11.87522,0,0,0,1.13569-1.422c.36859-.52749.71646-1.09725,1.06434-1.70511.34377-.6032.67885-1.23632,1.03926-1.88206.17189-.32479.36884-.654.55761-.979.20515-.32917.40211-.654.62848-.98314.20949-.32917.44839-.65006.68731-.97491.1215-.16046.25143-.31655.38137-.47676l.19287-.24057.176-.21119a16.735,16.735,0,0,1,1.70559-1.77234,12.5835,12.5835,0,0,1,4.68117-2.646c.44-.12235.88425-.25324,1.337-.3333.222-.03788.44839-.0971.67451-.12234l.67911-.0845a16.02322,16.02322,0,0,1,2.69883-.02524,18.31057,18.31057,0,0,1,2.63177.39254c.43177.09685.85919.20657,1.29509.33742.43151.12264.86328.2787,1.32421.4559l.046-.08449.63717.33329a7.001,7.001,0,0,1,.63691.3588c.21387.135.42742.27431.64126.41365.21359.13908.419.31217.62846.46826l.31027.24495c.10053.08422.197.17721.2934.26581.1926.17721.398.35854.574.54425.17189.18571.34787.37141.51976.56125.16344.18572.30594.3673.45683.553.574.73,1.01829,1.38419,1.39123,1.90318a16.62509,16.62509,0,0,0,1.0646,1.34606,13.2829,13.2829,0,0,0,1.10223,1.131c.088.093.20105.17721.30158.26607l.31027.26143a3.99551,3.99551,0,0,0,.3269.26168l.33508.25325c.21793.17308.44864.34178.6873.50226.23891.16459.47782.3248.72516.48526.49444.31656,1.00985.62048,1.58817.95378.2893.1687.59522.34592.9431.55275a14.94911,14.94911,0,0,1,1.26973.85257,7.27184,7.27184,0,0,1,1.0101.91977l.15092.17309c.05013.05924.11715.13934.17163.21095.05446.07186.109.14784.16345.22382.05883.08011.12584.18133.18033.27431a3.30526,3.30526,0,0,1,.17163.29545c.06292.11384.12178.23206.18033.35441a5.43215,5.43215,0,0,1,.29747.81032c.042.13908.0798.30808.11332.46413.02916.1602.05446.32067.0711.48526.01683.16046.02507.32918.02942.49376a3.65013,3.65013,0,0,1-.01683.48526,4.93434,4.93434,0,0,1-.14655.92854c-.03351.14756-.07956.29956-.12586.44714-.05012.14785-.11305.30394-.176.45152-.06292.14785-.134.29981-.20949.4389-.07954.13523-.15935.27431-.243.40516a5.68977,5.68977,0,0,1-.54073.6962,6.04817,6.04817,0,0,1-1.03927.91155,7.11265,7.11265,0,0,1-1.425.75545l-.25554.10123-.222.08036c-.15091.05483-.26422.08861-.39391.135-.47781.14755-.82973.24469-1.15258.34178-.62873.18159-1.12725.34179-1.601.52338-.23048.09272-.45684.18571-.67478.28694s-.43151.20683-.63691.31655c-.20948.10973-.41079.23208-.61184.35853-.05446.03374-.109.07185-.16345.10561a76.53822,76.53822,0,0,0,18.40623,2.3547,46.06027,46.06027,0,0,0,16.61647-3.2325,31.06235,31.06235,0,0,0,9.08149-6.00087c4.01075-3.32548,5.06255-5.2624,6.61314-4.92062,2.59414.56563,1.932,6.45677,5.07938,12.15371,2.94617,5.334,7.93736,8.16985,11.46595,9.69338a5.369,5.369,0,0,0,2.07443-.46,6.05662,6.05662,0,0,0,3.07611-3.54056c4.698-1.56551,6.1606-3.54468,6.61723-5.07669.55326-1.86944-.331-2.80622.46118-4.61669,1.09784-2.51078,3.713-1.82307,4.76916-4.15255.77939-1.726-.43585-2.41806.306-5.38475.52309-2.08632,1.26308-2.23263,1.23162-3.53669v-.00618A5.79746,5.79746,0,0,0,198.7137,134.11178ZM117.42844,98.31754l.0504.11385c-.41079.40953-.83412.78507-1.25311,1.16473-.21359.18158-.42333.36728-.63282.55712-.20949.1857-.419.367-.62848.54863l-1.26153,1.08462c-.419.35441-.84232.70034-1.2572,1.05912l-4.95794,4.13994c-1.63422,1.36717-3.24773,2.72173-4.83617,4.09767l-.59932.51048-.595.51489c-.39826.33767-.78373.6962-1.18174,1.03392-.78373.69209-1.56747,1.38831-2.33432,2.0889-.197.17309-.38982.34617-.57428.52339-.18851.1772-.38138.34591-.56989.52312-.36884.3503-.75022.69647-1.10654,1.04676-.3645.35-.708.70471-1.06023,1.055-.16755.17283-.3351.35442-.50288.5275-.16755.17721-.32255.35442-.486.53163a21.433,21.433,0,0,0-1.72247,2.14787,15.46453,15.46453,0,0,0-1.32011,2.34646,21.62422,21.62422,0,0,0-1.622,5.6127,31.08389,31.08389,0,0,0-.30595,3.13129c-.04195.89041-.03763,1.79758-.02916,2.73435.02507.152.05446.30809.08365.46l-.07956.02962v.10123l-.24734.08448a15.1761,15.1761,0,0,1-1.76418-2.99631,17.26919,17.26919,0,0,1-1.12751-3.36747,17.91831,17.91831,0,0,1-.113-7.35131,16.64408,16.64408,0,0,1,1.18608-3.6969,20.23975,20.23975,0,0,1,1.932-3.28736,27.52253,27.52253,0,0,1,2.29238-2.79773c.39391-.44328.80445-.84817,1.21525-1.27033.41079-.40081.82568-.81031,1.249-1.19a49.78331,49.78331,0,0,1,11.16846-7.79871,44.59,44.59,0,0,1,6.2737-2.62051c.27242-.08861.54049-.18159.8129-.26169l.81725-.23646c.54483-.15608,1.09375-.30808,1.65112-.426a26.67365,26.67365,0,0,1,3.248-.57828c.10488-.03374.20949-.06749.31846-.10124l.04605.10124c-.0585.03788-.11708.076-.17591.10973Zm10.13764,41.61789a5.76022,5.76022,0,0,1-7.34238-3.49419,6.02383,6.02383,0,0,1,3.32056-7.81374,5.95451,5.95451,0,0,1,7.75967,3.3437,6.02382,6.02382,0,0,1-3.32056,7.81374Q127.77759,139.868,127.56608,139.93543Z" />
			</g>
		</g>
	</g>
</svg>
