<svg xmlns="http://www.w3.org/2000/svg" viewBox="0 0 230 230.00002"><defs><style>.cls-1{fill:#4ecdc4;}.cls-2{fill:#fff;}</style></defs><title>icon_circle_white</title><g id="Layer_2" data-name="Layer 2"><g id="Layer_1-2" data-name="Layer 1"><circle class="cls-1" cx="115" cy="115.00002" r="115"/><path class="cls-2" d="M73.37962,162.44842a.6997.6997,0,0,0,.04195.12234l.046.12673.06293.13084a1.11578,1.11578,0,0,0,.07111.13909,5.33261,5.33261,0,0,0,.90958,1.148,10.9091,10.9091,0,0,0,1.34109,1.11811,22.75168,22.75168,0,0,0,3.29378,1.91607c.58678.28693,1.18609.55686,1.80228.81443l.465.19421.2389.09685.22637.0886.4484.17747c.15091.059.30592.10972.45684.16458a30.77879,30.77879,0,0,0,3.7634,1.08437c.3269.03375.65379.07187.98478.09711l.49035.03812.49034.02936q.98684.04443,1.96113.0255c.3269-.0085.6497-.0255.97225-.03812.3228-.02524.64561-.03786.96406-.0716.63691-.05925,1.26564-.13085,1.88158-.24495.62028-.10123,1.21959-.24057,1.80637-.38816a17.0001,17.0001,0,0,0,1.67618-.54013,9.81212,9.81212,0,0,0,2.66965-1.456,4.71107,4.71107,0,0,0,.78783-.81006,2.59215,2.59215,0,0,0,.38547-.73433c.01279-.05486.03786-.1056.05039-.16047a.97415.97415,0,0,1,.02942-.1602c.00844-.11823.0376-.21533.05013-.384.03351-.31243.06727-.7892.11741-1.49829a17.02077,17.02077,0,0,1,.38138-2.69238l.088-.38815c.03351-.12673.07546-.26582.11741-.39666.08389-.27019.1591-.536.25988-.7977.10461-.26581.21358-.5275.32255-.78893.11331-.26169.25143-.50664.37728-.75983l.201-.37116c.067-.12261.14248-.23233.21384-.3503.14657-.22795.29339-.4559.4443-.68359.155-.22383.31411-.41778.47347-.62461l.42333-.5275.201-.25757.31437-.40928c.22637-.29543.47781-.61611.75022-.94116a20.5558,20.5558,0,0,1,3.977-3.73451c.38547-.27431.79218-.5275,1.19453-.77657.23456-.135.47346-.27019.71237-.401l-.15092-.135c-.155-.13935-.31-.27844-.46093-.43452l-.45683-.4559c-.14682-.152-.30183-.29544-.44431-.46414a21.91687,21.91687,0,0,1-1.668-2.01729q-.19491-.26582-.377-.53163l-.34787-.5275c-.1215-.17721-.222-.34618-.3269-.51488l-.155-.2532-.14683-.24907c-.38547-.654-.6873-1.18585-.94283-1.58251a5.0094,5.0094,0,0,0-.68321-.903c-.06267-.059-.88835-.83118-.88835-.83118a4.67291,4.67291,0,0,0-.57834-.42215c-.21384-.14347-.4443-.26581-.67476-.39254a9.09526,9.09526,0,0,0-1.43753-.59911,7.37188,7.37188,0,0,0-2.94182-.35029,6.40659,6.40659,0,0,0-2.81622.9664,10.84433,10.84433,0,0,0-1.383,1.055l-.18443.16871-.1591.14784c-.109.10123-.21793.19833-.3228.30368-.2054.21532-.419.42215-.62029.65835-.41054.46-.80036.96228-1.19427,1.4939-.38982.53188-.76276,1.10163-1.14005,1.69662l-1.14413,1.86506c-.197.32093-.41489.64161-.63282.97078-.23047.3248-.46093.64985-.729.97053l-.19286.24057-.21384.23619-.21358.23233-.109.118-.10487.10123a11.9083,11.9083,0,0,1-.87991.82293,14.11167,14.11167,0,0,1-1.97826,1.39681c-.61185.37579-1.16077.70909-1.71813,1.07612-.54892.36292-1.0981.73871-1.647,1.13537l-1.68052,1.22372-1.66365,1.23221c-1.09809.82294-2.17087,1.65438-3.13493,2.50667a15.40388,15.40388,0,0,0-1.31577,1.28708,6.28766,6.28766,0,0,0-.8968,1.23247,1.987,1.987,0,0,0-.25144.95791,1.293,1.293,0,0,0,.02072.21507c.00844.03812.00844.07186.01689.1141C73.35865,162.37243,73.37118,162.41056,73.37962,162.44842Z"/><path class="cls-2" d="M198.7146,136.11162c-2.267-.86929-3.294.60349-8.61621,1.07613-4.72312.41778-5.71635-.57824-6.00129-.92416-.92212-1.10575-.65789-2.77686-.46093-3.69252,1.67617-7.83245,9.84834-20.00289,9.84834-20.00289,6.43306-14.50429-1.31168-34.43969-10.77046-45.38642-20.22079-23.39586-57.93388-16.88449-76.646-8.00966-13.54473,6.42715-24.38629,17.762-28.59809,26.01226-7.359,14.4198-.55737,19.2137-9.23241,31.84854-4.76507,6.942-11.31937,11.92575-13.84656,13.84593-9.115,6.92915-13.58233,6.87017-19.54167,13.694-3.026,3.469-7.63987,8.75223-7.22933,15.23424.66633,10.57119,14.5423,21.64876,27.23193,18.61458,8.9559-2.13963,13.48206-10.17015,14.91524-13.22982-.01253-.02525-.02941-.04637-.04195-.07161a6.5361,6.5361,0,0,1-.85484-3.02593,6.07906,6.07906,0,0,1,.19287-1.63737,7.26124,7.26124,0,0,1,.54892-1.43467,10.64972,10.64972,0,0,1,1.53805-2.16925,21.26785,21.26785,0,0,1,1.67617-1.65c1.13161-.99576,2.27575-1.87794,3.41554-2.73462l1.70585-1.26158,1.70968-1.24509c.58269-.4219,1.19018-.83968,1.802-1.24484s1.2531-.79743,1.83579-1.15211a11.96735,11.96735,0,0,0,1.45415-1.00426c.109-.08861.21793-.18571.331-.28281.11331-.09273.22637-.20245.33943-.30368l.088-.08036.07136-.07161.14657-.14346.15092-.14347.14682-.16046a11.87711,11.87711,0,0,0,1.1357-1.422c.36859-.5275.71646-1.09725,1.06433-1.70511.34378-.60323.67886-1.23634,1.03926-1.88207.17189-.32479.36885-.654.55762-.979.20514-.32917.4021-.654.62847-.98315.20949-.32917.4484-.6501.6873-.9749.1215-.16046.25144-.31655.38138-.47676l.19287-.24057.176-.21121a16.73657,16.73657,0,0,1,1.70559-1.77234,12.58383,12.58383,0,0,1,4.68117-2.646c.44-.12235.88426-.2532,1.337-.3333.222-.03786.44839-.0971.67451-.12235l.67911-.08448a16.0236,16.0236,0,0,1,2.69882-.02524,18.30854,18.30854,0,0,1,2.6318.39254c.43177.09684.85919.20657,1.29506.33741.43151.12261.86328.27869,1.32421.4559l.046-.08448.63717.33329a7.00172,7.00172,0,0,1,.63691.3588c.21384.135.42742.27431.64126.41366.21358.13908.419.31217.62847.46826l.31027.24495c.10052.08422.197.17721.29339.26581.19261.17721.398.35854.574.54425.17189.1857.34787.37141.51976.56124.16345.18571.30592.3673.45683.553.574.73,1.01829,1.38419,1.39123,1.90319a16.62438,16.62438,0,0,0,1.06459,1.34606,13.28333,13.28333,0,0,0,1.10219,1.131c.088.093.201.17721.30158.26607l.31027.26143a3.99562,3.99562,0,0,0,.32689.26169l.33508.2532c.21794.17308.44866.34179.68731.50226.2389.16459.47781.32479.72515.48526.49444.31655,1.00985.62049,1.58819.95378.2893.16871.59522.34592.94309.55275a14.94807,14.94807,0,0,1,1.26973.85255,7.27068,7.27068,0,0,1,1.01011.91979l.15091.17308c.05014.05924.11715.13935.17163.21095.05449.07187.109.14785.16345.22383.05883.08011.12585.18133.18033.27431a3.302,3.302,0,0,1,.17164.29544c.06292.11384.12175.23207.18033.35441a5.43346,5.43346,0,0,1,.29748.81032c.04195.13909.0798.308.11331.46414.02916.16021.05449.32067.07111.48526.01688.16047.02507.32918.02942.49376a3.65053,3.65053,0,0,1-.01688.48527,4.93524,4.93524,0,0,1-.14657.92854c-.03351.14758-.07955.29955-.12585.44714-.05013.14784-.11306.30393-.176.45152-.06292.14784-.134.29981-.20949.4389-.07955.13522-.15936.27431-.243.40515a5.68961,5.68961,0,0,1-.54073.69622,6.04892,6.04892,0,0,1-1.03927.91154,7.11354,7.11354,0,0,1-1.425.75545l-.25554.10122-.222.08037c-.15091.05486-.26423.0886-.39391.135-.47781.14759-.82978.24469-1.15258.3418-.62873.18159-1.12726.34179-1.601.52338-.23046.09273-.45683.18571-.67477.28693s-.43151.20683-.63691.31656c-.20949.10972-.41079.23207-.61184.35853-.05448.03375-.109.07187-.16345.10561a76.53867,76.53867,0,0,0,18.40623,2.3547,46.06817,46.06817,0,0,0,16.61648-3.2325,31.07616,31.07616,0,0,0,9.08149-6.00087c4.01076-3.32548,5.06255-5.26241,6.61314-4.92062,2.5942.56563,1.932,6.45677,5.07943,12.1537,2.94617,5.334,7.93735,8.16987,11.46594,9.6934a5.369,5.369,0,0,0,2.07444-.46,6.06055,6.06055,0,0,0,3.07611-3.54056c4.69805-1.56551,6.16065-3.54468,6.61723-5.07671.55327-1.86944-.331-2.80622.46118-4.61668,1.09784-2.5108,3.713-1.82308,4.76916-4.15255.77939-1.726-.43586-2.41806.30593-5.38476.52308-2.08631,1.26308-2.23261,1.23161-3.53669V140.878A5.7981,5.7981,0,0,0,198.7146,136.11162Zm-81.28526-35.79425.05039.11385c-.41079.40954-.83412.78507-1.2531,1.16473-.21358.18159-.42333.3673-.63282.55712-.20949.18571-.419.367-.62847.54863l-1.26154,1.08463c-.419.35441-.84231.70033-1.2572,1.05912l-4.95794,4.13993c-1.63422,1.36718-3.24773,2.72174-4.83617,4.09768l-.59932.5105-.595.51489c-.39826.33767-.78373.69621-1.18174,1.03388-.78373.69209-1.56746,1.3883-2.33432,2.0889-.197.17308-.38982.34617-.57424.52338-.18851.17721-.38138.34591-.56989.52312-.36885.3503-.75023.69647-1.10654,1.04677-.3645.35-.708.70471-1.06024,1.055-.16754.17283-.33508.35442-.50288.52751-.16754.17721-.32255.35441-.486.53162a21.43123,21.43123,0,0,0-1.72247,2.14788,15.46485,15.46485,0,0,0-1.32012,2.34646,21.624,21.624,0,0,0-1.622,5.61271,31.0823,31.0823,0,0,0-.30593,3.13128c-.04194.89042-.0376,1.79758-.02916,2.73436.02507.152.05449.30806.08365.46l-.07955.02962v.10123l-.24735.08448a15.17656,15.17656,0,0,1-1.76417-2.99631,17.26916,17.26916,0,0,1-1.12751-3.36747,17.91832,17.91832,0,0,1-.11306-7.35131,16.64393,16.64393,0,0,1,1.18609-3.6969,20.24009,20.24009,0,0,1,1.932-3.28737,27.52243,27.52243,0,0,1,2.29237-2.79772c.39392-.44328.80446-.84818,1.21525-1.27034.4108-.40078.82568-.81031,1.249-1.19a49.78315,49.78315,0,0,1,11.16846-7.79871,44.58972,44.58972,0,0,1,6.27371-2.62052c.27241-.0886.54048-.18158.81289-.26169l.81725-.23645c.54482-.15608,1.09374-.30805,1.65111-.426a26.67493,26.67493,0,0,1,3.248-.57824c.10487-.03374.20949-.06748.31845-.10123l.046.10123C117.54675,100.24551,117.48818,100.28363,117.42934,100.31737ZM127.567,141.93528a5.55184,5.55184,0,1,1,4.01484-7.07287A5.76072,5.76072,0,0,1,127.567,141.93528Z"/><path class="cls-1" d="M117.24084,100.20764a26.67114,26.67114,0,0,0-3.248.57825c-.55737.118-1.10632.2699-1.65112.426l-.81726.23645c-.2724.08008-.54047.1731-.81287.26166a44.58855,44.58855,0,0,0-6.27374,2.62055,49.78385,49.78385,0,0,0-11.16846,7.7987c-.42334.37964-.8382.78919-1.249,1.18994-.41077.42218-.82129.82709-1.21521,1.27039a27.50281,27.50281,0,0,0-2.29236,2.79767,20.24312,20.24312,0,0,0-1.932,3.28741,16.64746,16.64746,0,0,0-1.1861,3.6969,17.918,17.918,0,0,0,.1131,7.35132,17.26742,17.26742,0,0,0,1.1275,3.36743,15.17582,15.17582,0,0,0,1.76417,2.99634l.24737-.08447v-.10126l.07953-.0296c-.02918-.152-.05859-.30805-.08362-.46-.00848-.93677-.01282-1.84394.02912-2.73438a31.07979,31.07979,0,0,1,.306-3.13129,21.6235,21.6235,0,0,1,1.62195-5.61267,15.45865,15.45865,0,0,1,1.32007-2.34649,21.45059,21.45059,0,0,1,1.72247-2.14789c.16346-.17719.31849-.35437.486-.53162.16778-.17309.33532-.35467.50287-.52746.35223-.35035.69574-.705,1.06024-1.05506.35632-.35028.73773-.69647,1.10656-1.04675.18848-.17719.38135-.34589.56989-.52313.18439-.17719.37726-.35028.57422-.52338.76684-.70056,1.5506-1.39679,2.33435-2.08887.398-.3377.78345-.69622,1.1817-1.03387l.595-.51489.59931-.5105c1.58844-1.376,3.202-2.73053,4.83618-4.09772l4.95794-4.13989c.41492-.35883.8382-.70471,1.25721-1.05914l1.26153-1.08466c.20947-.18158.419-.36291.62848-.54858.20947-.18982.41925-.37555.63281-.55713.419-.3797.84235-.75519,1.25312-1.16474l-.05042-.11383c.05884-.03375.11743-.0719.176-.10974l-.04608-.10126C117.45032,100.14014,117.3457,100.17389,117.24084,100.20764Zm6.9986,31.16492a5.55183,5.55183,0,1,0,7.34241,3.48981A5.75727,5.75727,0,0,0,124.23944,131.37256ZM114.99963,0A115.00139,115.00139,0,0,0,0,114.96973v.06079A115,115,0,1,0,114.99963,0Zm-3.39532,148.97388c-.40234.24908-.80908.50226-1.19452.77655a20.55489,20.55489,0,0,0-3.977,3.73456c-.27246.325-.52386.64569-.75024.94116l-.3144.40924-.20105.25757-.42327.52752c-.15937.20685-.31849.40076-.47352.62458-.15087.22772-.29772.45568-.44427.68359-.07135.118-.14685.22772-.21387.35034l-.201.37116c-.12585.25317-.264.4981-.37726.75982-.10894.26142-.21795.52314-.32257.78894-.10077.26166-.176.52747-.25988.79767-.04194.13086-.08387.27-.11737.39667l-.088.38818a17.01971,17.01971,0,0,0-.38134,2.69239c-.05018.709-.08393,1.18585-.11744,1.49823-.01251.16876-.04168.26587-.05011.38409a.97045.97045,0,0,0-.02942.16016c-.01257.05487-.03759.10565-.05041.16046a2.59081,2.59081,0,0,1-.3855.73437,4.71088,4.71088,0,0,1-.78778.81006,9.81444,9.81444,0,0,1-2.66968,1.45606,17.016,17.016,0,0,1-1.67614.5401c-.5868.14758-1.1861.28692-1.8064.38818-.616.11407-1.24469.18567-1.88159.24493-.31842.03376-.64124.04633-.96405.0716-.32257.01263-.64533.0296-.97223.03815q-.97422.01886-1.96112-.02552l-.49036-.02936-.49036-.03814c-.331-.02521-.65789-.06336-.9848-.09711a30.77585,30.77585,0,0,1-3.76336-1.08435c-.15094-.05487-.306-.10559-.45685-.16461l-.44843-.17743-.22638-.08862-.23889-.09687-.465-.19421c-.61615-.25757-1.21545-.52747-1.80224-.81439a22.75015,22.75015,0,0,1-3.29383-1.91608,10.9163,10.9163,0,0,1-1.34106-1.1181,5.33421,5.33421,0,0,1-.90961-1.148,1.1268,1.1268,0,0,1-.0711-.1391l-.06293-.13086-.046-.12671a.69548.69548,0,0,1-.04193-.12231c-.00849-.03791-.021-.076-.03351-.1139-.00848-.04223-.00848-.076-.01691-.11407a1.2953,1.2953,0,0,1-.02069-.21509,1.98627,1.98627,0,0,1,.25141-.95788,6.2887,6.2887,0,0,1,.89679-1.23249,15.395,15.395,0,0,1,1.31579-1.287c.96405-.85229,2.03681-1.68377,3.135-2.50671l1.66364-1.23218,1.68054-1.22375c.54889-.39667,1.09808-.77246,1.647-1.13538.55737-.367,1.10632-.70032,1.71814-1.07611A14.10712,14.10712,0,0,0,87.595,149.957a11.9062,11.9062,0,0,0,.87988-.82294l.10492-.10125.10895-.11792.21356-.23236.21387-.23621.19287-.24054c.26807-.32068.49854-.64575.729-.97052.21789-.32916.43585-.64984.63281-.97076l1.1441-1.86512c.37732-.595.75025-1.16473,1.14008-1.69659.39392-.53162.78369-1.03387,1.19427-1.4939.2013-.2362.41486-.443.62024-.65832.10492-.10535.21387-.20246.32282-.30371l.15912-.14783.18444-.1687a10.84534,10.84534,0,0,1,1.383-1.055,6.40768,6.40768,0,0,1,2.81622-.96637,7.37182,7.37182,0,0,1,2.94184.35028,9.0917,9.0917,0,0,1,1.4375.59912c.23047.12671.46093.24908.6748.39251a4.67688,4.67688,0,0,1,.57831.42218s.82568.77222.88837.83118a5.01025,5.01025,0,0,1,.68322.903c.2555.39666.55738.92859.94281,1.58252l.14685.24908.155.25317c.10492.16871.20545.33771.32691.5149l.3479.52752q.18219.26578.377.53162a21.914,21.914,0,0,0,1.668,2.01727c.14252.1687.29749.3122.44434.46418l.45684.45587c.15088.15606.30591.29516.46094.43451l.15088.135C112.07776,148.70367,111.83887,148.83893,111.60431,148.97388Zm89.57043-4.553c-.74176,2.96667.47351,3.65875-.3059,5.38476-1.05616,2.32947-3.67133,1.64173-4.76917,4.15253-.79217,1.81042.0921,2.74725-.46118,4.6167-.45661,1.532-1.91919,3.51117-6.61725,5.07666a6.0605,6.0605,0,0,1-3.07605,3.54059,5.3692,5.3692,0,0,1-2.07446.46c-3.52857-1.52356-8.51978-4.35938-11.46594-9.69342-3.14747-5.6969-2.48523-11.58807-5.07941-12.15369-1.5506-.34179-2.60242,1.59516-6.61316,4.92066a31.07647,31.07647,0,0,1-9.08148,6.00085,46.0693,46.0693,0,0,1-16.61652,3.23248,76.54063,76.54063,0,0,1-18.40619-2.35467c.05445-.03375.109-.0719.16345-.10565.20105-.12647.40235-.24878.61182-.35852.20538-.10974.419-.21534.6369-.31653s.44434-.19422.67481-.28693c.47369-.18164.97223-.34179,1.60095-.52344.32281-.097.67474-.19415,1.15259-.34179.1297-.04633.243-.08008.39392-.135l.222-.08032.25556-.10126a7.11615,7.11615,0,0,0,1.425-.75543,6.04952,6.04952,0,0,0,1.03924-.91156,5.6926,5.6926,0,0,0,.54077-.69623c.08362-.1308.16345-.2699.243-.40515.07544-.1391.14655-.291.20948-.43891.06292-.14758.12585-.30365.176-.45147.04627-.14759.09235-.29956.12586-.44715a4.93858,4.93858,0,0,0,.14654-.92859,3.64455,3.64455,0,0,0,.01685-.48522c-.00434-.16462-.01252-.33332-.02936-.49378-.01666-.16461-.042-.32507-.07111-.48523-.03351-.15613-.07141-.32507-.11334-.46417a5.434,5.434,0,0,0-.29748-.8103c-.0586-.12238-.11744-.2406-.1803-.35444a3.31441,3.31441,0,0,0-.17169-.29541c-.05445-.093-.12146-.19421-.1803-.27435-.05451-.076-.109-.15191-.16345-.22381-.05451-.0716-.12153-.15168-.17164-.21094l-.15094-.1731a7.27234,7.27234,0,0,0-1.01007-.9198,14.96068,14.96068,0,0,0-1.26971-.85254c-.3479-.20684-.65381-.384-.94312-.55273-.57836-.33331-1.09375-.63721-1.58819-.9538-.24732-.16046-.48627-.32068-.72516-.48523-.23865-.16046-.46936-.32922-.68732-.50225l-.33508-.25324a4.0049,4.0049,0,0,1-.3269-.26166l-.31025-.26147c-.10052-.08881-.21356-.173-.30157-.266a13.27855,13.27855,0,0,1-1.10217-1.131,16.61366,16.61366,0,0,1-1.06458-1.34607c-.373-.519-.81726-1.17321-1.39123-1.90319-.15094-.18567-.2934-.36725-.45685-.553-.17188-.18982-.3479-.37555-.51978-.56122-.176-.18573-.38135-.36707-.574-.54425-.09644-.08862-.19287-.18164-.2934-.26581l-.3103-.245c-.20947-.15607-.41486-.32917-.62842-.46827-.21387-.13934-.42743-.27868-.6413-.41363a7.0017,7.0017,0,0,0-.6369-.35883l-.63714-.33325-.04608.08447c-.46088-.17724-.8927-.33331-1.32422-.45593-.43586-.1308-.86328-.24054-1.29505-.3374a18.3123,18.3123,0,0,0-2.63177-.39252,16.02186,16.02186,0,0,0-2.69885.02521l-.67908.08453c-.22614.02521-.45252.08448-.6745.12232-.45276.08014-.8971.21094-1.337.33331a12.58345,12.58345,0,0,0-4.68115,2.646,16.73616,16.73616,0,0,0-1.70563,1.77234l-.176.21124-.19287.24054c-.13.16022-.25989.31628-.38135.47674-.23889.32483-.47784.64576-.68732.97492-.22638.32916-.42334.654-.62848.98315-.18878.32508-.38574.65424-.55761.979-.36042.64575-.6955,1.27887-1.03925,1.88208-.3479.60785-.69574,1.17761-1.06433,1.70514a11.87268,11.87268,0,0,1-1.13574,1.422l-.14679.16053-.15094.14343-.14655.14349-.07135.0716-.088.08032c-.113.10126-.22614.211-.33942.30371-.113.09711-.222.19421-.331.28277a11.96212,11.96212,0,0,1-1.45416,1.00428c-.58271.35467-1.22394.74695-1.83576,1.15216s-1.21936.82293-1.80206,1.24481l-1.70966,1.24512-1.70587,1.26153c-1.13977.85669-2.28393,1.73889-3.41553,2.73462a21.26126,21.26126,0,0,0-1.67614,1.65,10.65076,10.65076,0,0,0-1.53809,2.16925,7.2613,7.2613,0,0,0-.54889,1.43463,6.07547,6.07547,0,0,0-.19287,1.63739,6.53668,6.53668,0,0,0,.8548,3.02594c.01257.02527.02942.04638.042.07159C68.334,168.25146,63.8078,176.282,54.85187,178.42163c-12.68958,3.03418-26.56555-8.0434-27.23194-18.61462-.41052-6.482,4.20337-11.76526,7.22937-15.2342,5.95935-6.82385,10.42664-6.76483,19.54169-13.694,2.52716-1.92023,9.08148-6.90394,13.84656-13.846,8.675-12.63489,1.87335-17.42877,9.23236-31.84857C81.6817,76.93414,92.52332,65.59924,106.068,59.17212c18.71216-8.87488,56.4253-15.38623,76.64606,8.00964,9.4588,10.94672,17.20349,30.88214,10.77045,45.38642,0,0-8.17218,12.17041-9.84833,20.00286-.197.91565-.46118,2.5868.46094,3.69251.28491.34595,1.27813,1.342,6.00128.92419,5.3222-.47265,6.34918-1.94543,8.61621-1.07611a5.798,5.798,0,0,1,3.69177,4.7663v.00616C202.43787,142.18817,201.69788,142.33447,201.17474,144.42084Z"/></g></g></svg>