<svg xmlns="http://www.w3.org/2000/svg" xmlns:xlink="http://www.w3.org/1999/xlink" viewBox="0 0 41.71338 30.29883"><defs><style>.cls-1{fill:none;}.cls-2{clip-path:url(#clip-path);}.cls-3{fill:#fff;}</style><clipPath id="clip-path" transform="translate(0 -0.00002)"><rect class="cls-1" x="0.00002" width="41.713" height="30.299"/></clipPath></defs><title>logo_fill_white</title><g id="Layer_2" data-name="Layer 2"><g id="Layer_1-2" data-name="Layer 1"><g class="cls-2"><path class="cls-3" d="M23.85512,21.5322a1.377,1.377,0,0,1-1.752-.828,1.4241,1.4241,0,1,1,1.752.828m-2.419-9.862.012.027c-.098.097-.199.186-.299.276-.051.043-.101.087-.151.132-.05.044-.1.087-.15.13l-.301.257c-.1.084-.201.166-.3.251l-1.183.981c-.39.324-.775.645-1.154.971l-.143.121-.142.122c-.095.08-.187.165-.282.245-.187.164-.374.329-.557.495-.047.041-.093.082-.137.124-.045.042-.091.082-.136.124-.088.083-.179.165-.264.248-.087.083-.169.167-.253.25-.04.041-.08.084-.12.125-.04.042-.077.084-.116.126a5.09185,5.09185,0,0,0-.411.509,3.65631,3.65631,0,0,0-.315.556,5.09658,5.09658,0,0,0-.387,1.33,7.3122,7.3122,0,0,0-.073.742c-.01.211-.009.426-.007.648.006.036.013.073.02.109l-.019.007v.024l-.059.02a3.59188,3.59188,0,0,1-.421-.71,4.07179,4.07179,0,0,1-.269-.798,4.21735,4.21735,0,0,1-.027-1.742,3.92569,3.92569,0,0,1,.283-.876,4.78606,4.78606,0,0,1,.461-.779,6.53793,6.53793,0,0,1,.547-.663c.094-.105.192-.201.29-.301.098-.095.197-.192.298-.282a11.88232,11.88232,0,0,1,2.665-1.848,10.68271,10.68271,0,0,1,1.497-.621c.065-.021.129-.043.194-.062l.195-.056c.13-.037.261-.073.394-.101a6.40448,6.40448,0,0,1,.775-.137l.076-.024.011.024c-.014.009-.028.018-.042.026m20.277,9.612a1.375,1.375,0,0,0-.881-1.13c-.541-.206-.786.143-2.056.255-1.127.099-1.364-.137-1.432-.219a1.0444,1.0444,0,0,1-.11-.875,18.75712,18.75712,0,0,1,2.35-4.74c1.535-3.437-.313-8.161-2.57-10.755-4.825-5.544-13.824-4.001-18.289-1.898a15.70047,15.70047,0,0,0-6.824,6.164c-1.756,3.417-.133,4.553-2.203,7.547a14.93981,14.93981,0,0,1-3.304,3.281c-2.175,1.642-3.241,1.628-4.663,3.245-.722.822-1.823,2.074-1.725,3.61.159,2.505,3.47,5.13,6.498,4.411a5.62428,5.62428,0,0,0,3.559-3.135l-.01-.017a1.54023,1.54023,0,0,1-.204-.717,1.43208,1.43208,0,0,1,.046-.388,1.71562,1.71562,0,0,1,.131-.34,2.525,2.525,0,0,1,.367-.514,5.04669,5.04669,0,0,1,.4-.391c.27-.236.543-.445.815-.648l.407-.299.408-.295c.139-.1.284-.199.43-.295s.299-.189.438-.273a2.85857,2.85857,0,0,0,.347-.238c.026-.021.052-.044.079-.067.027-.022.054-.048.081-.072l.021-.019.017-.017.035-.034.036-.034.035-.038a2.80655,2.80655,0,0,0,.271-.337c.088-.125.171-.26.254-.404.082-.143.162-.293.248-.446.041-.077.088-.155.133-.232.049-.078.096-.155.15-.233.05-.078.107-.154.164-.231.029-.038.06-.075.091-.113l.046-.057.042-.05a3.97664,3.97664,0,0,1,.407-.42,3.00828,3.00828,0,0,1,1.117-.627c.105-.029.211-.06.319-.079.053-.009.107-.023.161-.029l.162-.02a3.85127,3.85127,0,0,1,.644-.006,4.40247,4.40247,0,0,1,.628.093c.103.023.205.049.309.08.103.029.206.066.316.108l.011-.02.152.079a1.65551,1.65551,0,0,1,.152.085c.051.032.102.065.153.098s.1.074.15.111l.074.058c.024.02.047.042.07.063.046.042.095.085.137.129.041.044.083.088.124.133.039.044.073.087.109.131.137.173.243.328.332.451a3.95363,3.95363,0,0,0,.254.319,3.16649,3.16649,0,0,0,.263.268c.021.022.048.042.072.063l.074.062a.96473.96473,0,0,0,.078.062l.08.06c.052.041.107.081.164.119.057.039.114.077.173.115.118.075.241.147.379.226.069.04.142.082.225.131a3.56745,3.56745,0,0,1,.303.202,1.731,1.731,0,0,1,.241.218l.036.041c.012.014.028.033.041.05s.026.035.039.053c.014.019.03.043.043.065a.80209.80209,0,0,1,.041.07c.015.027.029.055.043.084a1.28932,1.28932,0,0,1,.071.192c.01.033.019.073.027.11.007.038.013.076.017.115.004.038.006.078.007.117a.85979.85979,0,0,1-.004.115,1.15964,1.15964,0,0,1-.035.22c-.008.035-.019.071-.03.106-.012.035-.027.072-.042.107s-.032.071-.05.104c-.019.032-.038.065-.058.096a1.35217,1.35217,0,0,1-.129.165,1.44338,1.44338,0,0,1-.248.216,1.70322,1.70322,0,0,1-.34.179l-.061.024-.053.019c-.036.013-.063.021-.094.032-.114.035-.198.058-.275.081-.15.043-.269.081-.382.124-.055.022-.109.044-.161.068s-.103.049-.152.075c-.05.026-.098.055-.146.085l-.039.025a18.38537,18.38537,0,0,0,4.392.558,11.05861,11.05861,0,0,0,3.965-.766,7.41577,7.41577,0,0,0,2.167-1.422c.957-.788,1.208-1.247,1.578-1.166.619.134.461,1.53,1.212,2.88a5.5424,5.5424,0,0,0,2.736,2.297,1.28991,1.28991,0,0,0,.495-.109,1.43844,1.43844,0,0,0,.734-.839c1.121-.371,1.47-.84,1.579-1.203.132-.443-.079-.665.11-1.094.262-.595.886-.432,1.138-.984.186-.409-.104-.573.073-1.276.125-.495.302-.529.294-.839" transform="translate(0 -0.00002)"/><path class="cls-3" d="M20.07012,22.9701l-.109-.108c-.035-.036-.072-.07-.106-.11a5.19658,5.19658,0,0,1-.398-.478q-.0465-.063-.09-.126l-.083-.125c-.029-.042-.053-.082-.078-.122l-.037-.06-.035-.059c-.092-.155-.164-.281-.225-.375a1.1884,1.1884,0,0,0-.163-.214l-.212-.197a1.11788,1.11788,0,0,0-.138-.1c-.051-.034-.106-.063-.161-.093a2.17527,2.17527,0,0,0-.343-.142,1.771,1.771,0,0,0-.702-.083,1.53564,1.53564,0,0,0-.672.229,2.58654,2.58654,0,0,0-.33.25l-.044.04-.038.035c-.026.024-.052.047-.077.072-.049.051-.1.1-.148.156-.098.109-.191.228-.285.354-.093.126-.182.261-.272.402l-.273.442c-.047.076-.099.152-.151.23-.055.077-.11.154-.174.23l-.046.057-.051.056-.051.055-.026.028-.025.024a2.84312,2.84312,0,0,1-.21.195,3.368,3.368,0,0,1-.472.331c-.146.089-.277.168-.41.255-.131.086-.262.175-.393.269l-.401.29-.397.292c-.262.195-.518.392-.748.594a3.65913,3.65913,0,0,0-.314.305,1.49307,1.49307,0,0,0-.214.292.46915.46915,0,0,0-.06.227.30352.30352,0,0,0,.005.051l.004.027.008.027a.16621.16621,0,0,0,.01.029l.011.03.015.031a.2586.2586,0,0,0,.017.033,1.26565,1.26565,0,0,0,.217.272,2.60534,2.60534,0,0,0,.32.265,5.4372,5.4372,0,0,0,.786.454q.21.102.43.193l.111.046.057.023.054.021.107.042c.036.014.073.026.109.039a7.384,7.384,0,0,0,.898.257c.078.008.156.017.235.023l.117.009.117.007q.2355.0105.468.006c.078-.002.155-.006.232-.009.077-.006.154-.009.23-.017.152-.014.302-.031.449-.058.148-.024.291-.057.431-.092a4.07366,4.07366,0,0,0,.4-.128,2.346,2.346,0,0,0,.637-.345,1.11906,1.11906,0,0,0,.188-.192.61488.61488,0,0,0,.092-.174c.003-.013.009-.025.012-.038a.23205.23205,0,0,1,.007-.038c.002-.028.009-.051.012-.091.008-.074.016-.187.028-.355a4.00928,4.00928,0,0,1,.091-.638l.021-.092c.008-.03.018-.063.028-.094.02-.064.038-.127.062-.189.025-.063.051-.125.077-.187.027-.062.06-.12.09-.18l.048-.088c.016-.029.034-.055.051-.083.035-.054.07-.108.106-.162.037-.053.075-.099.113-.148l.101-.125.048-.061.075-.097c.054-.07.114-.146.179-.223a4.89078,4.89078,0,0,1,.949-.885c.092-.065.189-.125.285-.184.056-.032.113-.064.17-.095l-.036-.032c-.037-.033-.074-.066-.11-.103" transform="translate(0 -0.00002)"/></g></g></g></svg>